<svg xmlns="http://www.w3.org/2000/svg" width="32" height="32" viewBox="0 0 32 32"><path fill="#444" d="M16 0C9.924 0 5 4.924 5 11c0 4.03 3.688 8.303 5.03 12.055C12.035 28.65 11.813 32 16 32c4.25 0 3.965-3.334 5.97-8.922C23.315 19.318 27 15 27 11c0-6.076-4.926-11-11-11zm2.592 27.176l-4.958.62c-.177-.513-.367-1.112-.598-1.894l-.01-.03 6.19-.774c-.09.295-.183.605-.265.883-.13.45-.247.84-.358 1.196zm-5.856-2.268c-.182-.602-.387-1.236-.615-1.908h7.767c-.123.36-.246.72-.352 1.06l-6.8.848zM16 30c-1.013 0-1.48-.117-1.997-1.25l4.238-.53C17.628 29.872 17.18 30 16 30zm4.672-9H11.34c-.5-1.08-1.097-2.16-1.687-3.217C8.348 15.448 7 13.033 7 11c0-4.963 4.037-9 9-9s9 4.037 9 9c0 2.018-1.35 4.446-2.656 6.795-.584 1.053-1.178 2.13-1.672 3.205zM16 5c.275 0 .5.224.5.5s-.224.5-.5.5c-2.757 0-5 2.243-5 5 0 .276-.224.5-.5.5s-.5-.224-.5-.5c0-3.31 2.69-6 6-6z"/></svg>