<svg xmlns="http://www.w3.org/2000/svg" width="32" height="32" viewBox="0 0 32 32"><path fill="#444" d="M32 13.414C32 7.134 30.163 2.04 27.89 2h.028-2.592s-6.088 4.573-14.85 6.367c-.27 1.415-.44 3.102-.44 5.047s.172 3.63.44 5.047c8.762 1.795 14.85 6.368 14.85 6.368h2.592-.027c2.273-.04 4.11-5.135 4.11-11.414zm-4.974 9.688c-.293 0-.61-.304-.773-.486-.395-.44-.775-1.124-1.1-1.98-.727-1.912-1.127-4.477-1.127-7.222s.4-5.31 1.127-7.223c.325-.854.705-1.54 1.1-1.978.163-.182.48-.486.773-.486s.61.304.773.486c.394.44.774 1.124 1.1 1.98.726 1.912 1.126 4.478 1.126 7.222s-.4 5.31-1.127 7.223c-.326.855-.706 1.54-1.1 1.98-.164.18-.48.485-.774.485zM7.87 13.414c0-1.623.118-3.2.344-4.66-1.48.206-2.78.324-4.386.324H1.732L0 12.038v2.754l1.732 2.96h2.096c1.606 0 2.905.117 4.386.322-.226-1.458-.345-3.036-.345-4.66zm3.635 6.654l-4-.766 2.558 10.048c.132.52.648.782 1.146.583l3.704-1.483c.498-.2.698-.75.444-1.22l-3.853-7.162zm15.52-2.92c-.112 0-.234-.117-.297-.187-.152-.168-.3-.432-.424-.762-.28-.738-.434-1.726-.434-2.784s.154-2.046.434-2.784c.125-.33.272-.593.424-.763.063-.07.185-.187.298-.187s.235.117.298.187c.152.17.3.433.424.763.28.737.434 1.726.434 2.784s-.154 2.046-.434 2.784c-.125.33-.272.593-.424.763-.063.07-.185.188-.298.188z"/></svg>