<svg xmlns="http://www.w3.org/2000/svg" width="32" height="32" viewBox="0 0 32 32"><path fill="#444" d="M29.193 5.265c-3.63-3.596-9.432-3.67-13.19-.288-3.76-3.383-9.562-3.308-13.193.288-3.74 3.704-3.74 9.71 0 13.415l11.053 10.94c1.183 1.173 3.096 1.173 4.278 0l11.054-10.94c3.742-3.706 3.742-9.71 0-13.415zm-1.425 12.003l-11.053 10.94c-.393.392-1.034.392-1.425 0L4.237 17.27c-2.95-2.92-2.95-7.67 0-10.59 2.844-2.816 7.416-2.915 10.41-.223L16 7.675l1.355-1.22c2.994-2.692 7.566-2.594 10.41.222 2.95 2.92 2.95 7.67 0 10.59zM9.253 7.5c.277 0 .5.225.5.5s-.224.5-.5.5c-1.795 0-3.25 1.456-3.25 3.25 0 .277-.224.5-.5.5s-.5-.223-.5-.5c0-2.345 1.9-4.246 4.246-4.248h.003z"/></svg>