<svg xmlns="http://www.w3.org/2000/svg" width="32" height="32" viewBox="0 0 32 32"><path fill="#444" d="M31.818 9.122l-8.94-8.94c-.29-.29-.675-.225-.854.147l-1.2 2.496 8.35 8.35 2.498-1.2c.372-.177.438-.562.146-.854zM19.23 4.23L11 4.918c-.547.068-1.002.184-1.16.9C7.608 16.54 0 27.002 0 27.002l1.793 1.794 8.5-8.5C10.106 19.902 10 19.464 10 19c0-1.656 1.343-3 3-3s3 1.344 3 3-1.343 3-3 3c-.463 0-.902-.104-1.293-.292l-8.5 8.5L5 32s10.462-7.607 21.183-9.84h.002c.714-.157.83-.612.898-1.16l.686-8.23-8.54-8.54z"/></svg>